<svg xmlns="http://www.w3.org/2000/svg" xmlns:xlink="http://www.w3.org/1999/xlink" xmlns:s="https://github.com/nturley/netlistsvg" width="1920" height="591">
  <style>svg {
    stroke:#000;
    fill:none;
  }
  text {
    fill:#000;
    stroke:none;
    font-size:10px;
    font-weight: bold;
    font-family: "Courier New", monospace;
  }
  line {
      stroke-linecap: round;
  }
  .nodelabel {
    text-anchor: middle;
  }
  .inputPortLabel {
    text-anchor: end;
  }
  .splitjoinBody {
    fill:#000;
  }</style>
  <g s:type="or" transform="translate(1080,421.5)" s:width="30" s:height="25" id="cell_$logic_or$src/clock_wrapper.v:98$2">
    <s:alias val="$or"/>
    <s:alias val="$logic_or"/>
    <s:alias val="$_OR_"/>
    <path d="M0,25 L0,25 L15,25 A15 12.5 0 0 0 15,0 L0,0" class="cell_$logic_or$src/clock_wrapper.v:98$2"/>
    <path d="M0,0 A30 25 0 0 1 0,25" class="cell_$logic_or$src/clock_wrapper.v:98$2"/>
    <g s:x="2" s:y="5" s:pid="A"/>
    <g s:x="2" s:y="20" s:pid="B"/>
    <g s:x="30" s:y="12.5" s:pid="Y"/>
  </g>
  <g s:type="mux" transform="translate(800,139.5)" s:width="20" s:height="40" id="cell_$ternary$src/clock_wrapper.v:97$1">
    <s:alias val="$pmux"/>
    <s:alias val="$mux"/>
    <s:alias val="$_MUX_"/>
    <path d="M0,0 L20,10 L20,30 L0,40 Z" class="cell_$ternary$src/clock_wrapper.v:97$1"/>
    <text x="5" y="32" class="nodelabel cell_$ternary$src/clock_wrapper.v:97$1" s:attribute="">1</text>
    <text x="5" y="13" class="nodelabel cell_$ternary$src/clock_wrapper.v:97$1" s:attribute="">0</text>
    <g s:x="0" s:y="10" s:pid="A"/>
    <g s:x="0" s:y="30" s:pid="B"/>
    <g s:x="10" s:y="35" s:pid="S"/>
    <g s:x="20" s:y="20" s:pid="Y"/>
  </g>
  <g s:type="generic" transform="translate(356,119)" s:width="30" s:height="40" id="cell_clk_gen_inst">
    <s:alias val="generic-bus">clk_gen</s:alias>
    <text x="15" y="-4" class="nodelabel cell_clk_gen_inst" s:attribute="ref">clk_gen_inst</text>
    <rect width="30" height="80" s:generic="body" class="cell_clk_gen_inst"/>
    <g transform="translate(0,10)" s:x="0" s:y="10" s:pid="in0" id="port_clk_gen_inst~i_clk">
      <text x="-3" y="-4" class="inputPortLabel cell_clk_gen_inst">i_clk</text>
    </g>
    <g transform="translate(0,30)" s:x="0" s:y="10" s:pid="in0" id="port_clk_gen_inst~i_refclk">
      <text x="-3" y="-4" class="inputPortLabel cell_clk_gen_inst">i_refclk</text>
    </g>
    <g transform="translate(0,50)" s:x="0" s:y="10" s:pid="in0" id="port_clk_gen_inst~i_reset_n">
      <text x="-3" y="-4" class="inputPortLabel cell_clk_gen_inst">i_reset_n</text>
    </g>
    <g transform="translate(30,10)" s:x="30" s:y="10" s:pid="out0" id="port_clk_gen_inst~o_1hz_stb">
      <text x="5" y="-4" style="fill:#000; stroke:none" class="cell_clk_gen_inst">o_1hz_stb</text>
    </g>
    <g transform="translate(30,30)" s:x="30" s:y="10" s:pid="out0" id="port_clk_gen_inst~o_debounce_stb">
      <text x="5" y="-4" style="fill:#000; stroke:none" class="cell_clk_gen_inst">o_debounce_stb</text>
    </g>
    <g transform="translate(30,50)" s:x="30" s:y="10" s:pid="out0" id="port_clk_gen_inst~o_fast_set_stb">
      <text x="5" y="-4" style="fill:#000; stroke:none" class="cell_clk_gen_inst">o_fast_set_stb</text>
    </g>
    <g transform="translate(30,70)" s:x="30" s:y="10" s:pid="out0" id="port_clk_gen_inst~o_slow_set_stb">
      <text x="5" y="-4" style="fill:#000; stroke:none" class="cell_clk_gen_inst">o_slow_set_stb</text>
    </g>
  </g>
  <g s:type="generic" transform="translate(959,222.5)" s:width="30" s:height="40" id="cell_clock_reg_inst">
    <s:alias val="generic-bus">clock_register</s:alias>
    <text x="15" y="-4" class="nodelabel cell_clock_reg_inst" s:attribute="ref">clock_reg_inst</text>
    <rect width="30" height="120" s:generic="body" class="cell_clock_reg_inst"/>
    <g transform="translate(0,10)" s:x="0" s:y="10" s:pid="in0" id="port_clock_reg_inst~i_1hz_stb">
      <text x="-3" y="-4" class="inputPortLabel cell_clock_reg_inst">i_1hz_stb</text>
    </g>
    <g transform="translate(0,30)" s:x="0" s:y="10" s:pid="in0" id="port_clock_reg_inst~i_clk">
      <text x="-3" y="-4" class="inputPortLabel cell_clock_reg_inst">i_clk</text>
    </g>
    <g transform="translate(0,50)" s:x="0" s:y="10" s:pid="in0" id="port_clock_reg_inst~i_reset_n">
      <text x="-3" y="-4" class="inputPortLabel cell_clock_reg_inst">i_reset_n</text>
    </g>
    <g transform="translate(0,70)" s:x="0" s:y="10" s:pid="in0" id="port_clock_reg_inst~i_set_hours">
      <text x="-3" y="-4" class="inputPortLabel cell_clock_reg_inst">i_set_hours</text>
    </g>
    <g transform="translate(0,90)" s:x="0" s:y="10" s:pid="in0" id="port_clock_reg_inst~i_set_minutes">
      <text x="-3" y="-4" class="inputPortLabel cell_clock_reg_inst">i_set_minutes</text>
    </g>
    <g transform="translate(0,110)" s:x="0" s:y="10" s:pid="in0" id="port_clock_reg_inst~i_set_stb">
      <text x="-3" y="-4" class="inputPortLabel cell_clock_reg_inst">i_set_stb</text>
    </g>
    <g transform="translate(30,10)" s:x="30" s:y="10" s:pid="out0" id="port_clock_reg_inst~o_hours">
      <text x="5" y="-4" style="fill:#000; stroke:none" class="cell_clock_reg_inst">o_hours</text>
    </g>
    <g transform="translate(30,30)" s:x="30" s:y="10" s:pid="out0" id="port_clock_reg_inst~o_minutes">
      <text x="5" y="-4" style="fill:#000; stroke:none" class="cell_clock_reg_inst">o_minutes</text>
    </g>
    <g transform="translate(30,50)" s:x="30" s:y="10" s:pid="out0" id="port_clock_reg_inst~o_seconds">
      <text x="5" y="-4" style="fill:#000; stroke:none" class="cell_clock_reg_inst">o_seconds</text>
    </g>
  </g>
  <g s:type="generic" transform="translate(1410,446)" s:width="30" s:height="40" id="cell_display_control_inst">
    <s:alias val="generic-bus">display_controller</s:alias>
    <text x="15" y="-4" class="nodelabel cell_display_control_inst" s:attribute="ref">display_control_inst</text>
    <rect width="30" height="120" s:generic="body" class="cell_display_control_inst"/>
    <g transform="translate(0,10)" s:x="0" s:y="10" s:pid="in0" id="port_display_control_inst~i_1hz_stb">
      <text x="-3" y="-4" class="inputPortLabel cell_display_control_inst">i_1hz_stb</text>
    </g>
    <g transform="translate(0,30)" s:x="0" s:y="10" s:pid="in0" id="port_display_control_inst~i_clk">
      <text x="-3" y="-4" class="inputPortLabel cell_display_control_inst">i_clk</text>
    </g>
    <g transform="translate(0,50)" s:x="0" s:y="10" s:pid="in0" id="port_display_control_inst~i_clk_set">
      <text x="-3" y="-4" class="inputPortLabel cell_display_control_inst">i_clk_set</text>
    </g>
    <g transform="translate(0,70)" s:x="0" s:y="10" s:pid="in0" id="port_display_control_inst~i_clk_set_stb">
      <text x="-3" y="-4" class="inputPortLabel cell_display_control_inst">i_clk_set_stb</text>
    </g>
    <g transform="translate(0,90)" s:x="0" s:y="10" s:pid="in0" id="port_display_control_inst~i_display_ack">
      <text x="-3" y="-4" class="inputPortLabel cell_display_control_inst">i_display_ack</text>
    </g>
    <g transform="translate(0,110)" s:x="0" s:y="10" s:pid="in0" id="port_display_control_inst~i_reset_n">
      <text x="-3" y="-4" class="inputPortLabel cell_display_control_inst">i_reset_n</text>
    </g>
    <g transform="translate(30,10)" s:x="30" s:y="10" s:pid="out0" id="port_display_control_inst~o_display_stb">
      <text x="5" y="-4" style="fill:#000; stroke:none" class="cell_display_control_inst">o_display_stb</text>
    </g>
    <g transform="translate(30,30)" s:x="30" s:y="10" s:pid="out0" id="port_display_control_inst~o_write_config">
      <text x="5" y="-4" style="fill:#000; stroke:none" class="cell_display_control_inst">o_write_config</text>
    </g>
  </g>
  <g s:type="generic" transform="translate(1685,326)" s:width="30" s:height="40" id="cell_display_inst">
    <s:alias val="generic-bus">output_wrapper</s:alias>
    <text x="15" y="-4" class="nodelabel cell_display_inst" s:attribute="ref">display_inst</text>
    <rect width="30" height="160" s:generic="body" class="cell_display_inst"/>
    <g transform="translate(0,10)" s:x="0" s:y="10" s:pid="in0" id="port_display_inst~i_clk">
      <text x="-3" y="-4" class="inputPortLabel cell_display_inst">i_clk</text>
    </g>
    <g transform="translate(0,30)" s:x="0" s:y="10" s:pid="in0" id="port_display_inst~i_dp">
      <text x="-3" y="-4" class="inputPortLabel cell_display_inst">i_dp</text>
    </g>
    <g transform="translate(0,50)" s:x="0" s:y="10" s:pid="in0" id="port_display_inst~i_hours">
      <text x="-3" y="-4" class="inputPortLabel cell_display_inst">i_hours</text>
    </g>
    <g transform="translate(0,70)" s:x="0" s:y="10" s:pid="in0" id="port_display_inst~i_minutes">
      <text x="-3" y="-4" class="inputPortLabel cell_display_inst">i_minutes</text>
    </g>
    <g transform="translate(0,90)" s:x="0" s:y="10" s:pid="in0" id="port_display_inst~i_reset_n">
      <text x="-3" y="-4" class="inputPortLabel cell_display_inst">i_reset_n</text>
    </g>
    <g transform="translate(0,110)" s:x="0" s:y="10" s:pid="in0" id="port_display_inst~i_seconds">
      <text x="-3" y="-4" class="inputPortLabel cell_display_inst">i_seconds</text>
    </g>
    <g transform="translate(0,130)" s:x="0" s:y="10" s:pid="in0" id="port_display_inst~i_stb">
      <text x="-3" y="-4" class="inputPortLabel cell_display_inst">i_stb</text>
    </g>
    <g transform="translate(0,150)" s:x="0" s:y="10" s:pid="in0" id="port_display_inst~i_write_config">
      <text x="-3" y="-4" class="inputPortLabel cell_display_inst">i_write_config</text>
    </g>
    <g transform="translate(30,10)" s:x="30" s:y="10" s:pid="out0" id="port_display_inst~o_ack">
      <text x="5" y="-4" style="fill:#000; stroke:none" class="cell_display_inst">o_ack</text>
    </g>
    <g transform="translate(30,30)" s:x="30" s:y="10" s:pid="out0" id="port_display_inst~o_busy">
      <text x="5" y="-4" style="fill:#000; stroke:none" class="cell_display_inst">o_busy</text>
    </g>
    <g transform="translate(30,50)" s:x="30" s:y="10" s:pid="out0" id="port_display_inst~o_serial_clk">
      <text x="5" y="-4" style="fill:#000; stroke:none" class="cell_display_inst">o_serial_clk</text>
    </g>
    <g transform="translate(30,70)" s:x="30" s:y="10" s:pid="out0" id="port_display_inst~o_serial_dout">
      <text x="5" y="-4" style="fill:#000; stroke:none" class="cell_display_inst">o_serial_dout</text>
    </g>
    <g transform="translate(30,90)" s:x="30" s:y="10" s:pid="out0" id="port_display_inst~o_serial_load">
      <text x="5" y="-4" style="fill:#000; stroke:none" class="cell_display_inst">o_serial_load</text>
    </g>
  </g>
  <g s:type="generic" transform="translate(1206,151)" s:width="30" s:height="40" id="cell_dp_control_inst">
    <s:alias val="generic-bus">decimal_point_controller</s:alias>
    <text x="15" y="-4" class="nodelabel cell_dp_control_inst" s:attribute="ref">dp_control_inst</text>
    <rect width="30" height="40" s:generic="body" class="cell_dp_control_inst"/>
    <g transform="translate(0,10)" s:x="0" s:y="10" s:pid="in0" id="port_dp_control_inst~i_seconds">
      <text x="-3" y="-4" class="inputPortLabel cell_dp_control_inst">i_seconds</text>
    </g>
    <g transform="translate(0,30)" s:x="0" s:y="10" s:pid="in0" id="port_dp_control_inst~i_set_time">
      <text x="-3" y="-4" class="inputPortLabel cell_dp_control_inst">i_set_time</text>
    </g>
    <g transform="translate(30,10)" s:x="30" s:y="10" s:pid="out0" id="port_dp_control_inst~o_dp">
      <text x="5" y="-4" style="fill:#000; stroke:none" class="cell_dp_control_inst">o_dp</text>
    </g>
  </g>
  <g s:type="generic" transform="translate(637,262.5)" s:width="30" s:height="40" id="cell_input_debounce">
    <s:alias val="generic-bus">button_debounce</s:alias>
    <text x="15" y="-4" class="nodelabel cell_input_debounce" s:attribute="ref">input_debounce</text>
    <rect width="30" height="120" s:generic="body" class="cell_input_debounce"/>
    <g transform="translate(0,10)" s:x="0" s:y="10" s:pid="in0" id="port_input_debounce~i_clk">
      <text x="-3" y="-4" class="inputPortLabel cell_input_debounce">i_clk</text>
    </g>
    <g transform="translate(0,30)" s:x="0" s:y="10" s:pid="in0" id="port_input_debounce~i_debounce_stb">
      <text x="-3" y="-4" class="inputPortLabel cell_input_debounce">i_debounce_stb</text>
    </g>
    <g transform="translate(0,50)" s:x="0" s:y="10" s:pid="in0" id="port_input_debounce~i_fast_set">
      <text x="-3" y="-4" class="inputPortLabel cell_input_debounce">i_fast_set</text>
    </g>
    <g transform="translate(0,70)" s:x="0" s:y="10" s:pid="in0" id="port_input_debounce~i_reset_n">
      <text x="-3" y="-4" class="inputPortLabel cell_input_debounce">i_reset_n</text>
    </g>
    <g transform="translate(0,90)" s:x="0" s:y="10" s:pid="in0" id="port_input_debounce~i_set_hours">
      <text x="-3" y="-4" class="inputPortLabel cell_input_debounce">i_set_hours</text>
    </g>
    <g transform="translate(0,110)" s:x="0" s:y="10" s:pid="in0" id="port_input_debounce~i_set_minutes">
      <text x="-3" y="-4" class="inputPortLabel cell_input_debounce">i_set_minutes</text>
    </g>
    <g transform="translate(30,10)" s:x="30" s:y="10" s:pid="out0" id="port_input_debounce~o_fast_set_db">
      <text x="5" y="-4" style="fill:#000; stroke:none" class="cell_input_debounce">o_fast_set_db</text>
    </g>
    <g transform="translate(30,30)" s:x="30" s:y="10" s:pid="out0" id="port_input_debounce~o_set_hours_db">
      <text x="5" y="-4" style="fill:#000; stroke:none" class="cell_input_debounce">o_set_hours_db</text>
    </g>
    <g transform="translate(30,50)" s:x="30" s:y="10" s:pid="out0" id="port_input_debounce~o_set_minutes_db">
      <text x="5" y="-4" style="fill:#000; stroke:none" class="cell_input_debounce">o_set_minutes_db</text>
    </g>
  </g>
  <g s:type="generic" transform="translate(156,139)" s:width="30" s:height="40" id="cell_refclk_sync_inst">
    <s:alias val="generic-bus">refclk_sync</s:alias>
    <text x="15" y="-4" class="nodelabel cell_refclk_sync_inst" s:attribute="ref">refclk_sync_inst</text>
    <rect width="30" height="60" s:generic="body" class="cell_refclk_sync_inst"/>
    <g transform="translate(0,10)" s:x="0" s:y="10" s:pid="in0" id="port_refclk_sync_inst~i_clk">
      <text x="-3" y="-4" class="inputPortLabel cell_refclk_sync_inst">i_clk</text>
    </g>
    <g transform="translate(0,30)" s:x="0" s:y="10" s:pid="in0" id="port_refclk_sync_inst~i_refclk">
      <text x="-3" y="-4" class="inputPortLabel cell_refclk_sync_inst">i_refclk</text>
    </g>
    <g transform="translate(0,50)" s:x="0" s:y="10" s:pid="in0" id="port_refclk_sync_inst~i_reset_n">
      <text x="-3" y="-4" class="inputPortLabel cell_refclk_sync_inst">i_reset_n</text>
    </g>
    <g transform="translate(30,10)" s:x="30" s:y="10" s:pid="out0" id="port_refclk_sync_inst~o_refclk_sync">
      <text x="5" y="-4" style="fill:#000; stroke:none" class="cell_refclk_sync_inst">o_refclk_sync</text>
    </g>
  </g>
  <g s:type="inputExt" transform="translate(12,267)" s:width="30" s:height="20" id="cell_i_reset_n">
    <text x="15" y="-4" class="nodelabel cell_i_reset_n" s:attribute="ref">i_reset_n</text>
    <s:alias val="$_inputExt_"/>
    <path d="M0,0 L0,20 L15,20 L30,10 L15,0 Z" class="cell_i_reset_n"/>
    <g s:x="30" s:y="10" s:pid="Y"/>
  </g>
  <g s:type="inputExt" transform="translate(12,88)" s:width="30" s:height="20" id="cell_i_clk">
    <text x="15" y="-4" class="nodelabel cell_i_clk" s:attribute="ref">i_clk</text>
    <s:alias val="$_inputExt_"/>
    <path d="M0,0 L0,20 L15,20 L30,10 L15,0 Z" class="cell_i_clk"/>
    <g s:x="30" s:y="10" s:pid="Y"/>
  </g>
  <g s:type="inputExt" transform="translate(12,159.5)" s:width="30" s:height="20" id="cell_i_refclk">
    <text x="15" y="-4" class="nodelabel cell_i_refclk" s:attribute="ref">i_refclk</text>
    <s:alias val="$_inputExt_"/>
    <path d="M0,0 L0,20 L15,20 L30,10 L15,0 Z" class="cell_i_refclk"/>
    <g s:x="30" s:y="10" s:pid="Y"/>
  </g>
  <g s:type="inputExt" transform="translate(12,22)" s:width="30" s:height="20" id="cell_i_en">
    <text x="15" y="-4" class="nodelabel cell_i_en" s:attribute="ref">i_en</text>
    <s:alias val="$_inputExt_"/>
    <path d="M0,0 L0,20 L15,20 L30,10 L15,0 Z" class="cell_i_en"/>
    <g s:x="30" s:y="10" s:pid="Y"/>
  </g>
  <g s:type="inputExt" transform="translate(356,247)" s:width="30" s:height="20" id="cell_i_fast_set">
    <text x="15" y="-4" class="nodelabel cell_i_fast_set" s:attribute="ref">i_fast_set</text>
    <s:alias val="$_inputExt_"/>
    <path d="M0,0 L0,20 L15,20 L30,10 L15,0 Z" class="cell_i_fast_set"/>
    <g s:x="30" s:y="10" s:pid="Y"/>
  </g>
  <g s:type="inputExt" transform="translate(356,298)" s:width="30" s:height="20" id="cell_i_set_hours">
    <text x="15" y="-4" class="nodelabel cell_i_set_hours" s:attribute="ref">i_set_hours</text>
    <s:alias val="$_inputExt_"/>
    <path d="M0,0 L0,20 L15,20 L30,10 L15,0 Z" class="cell_i_set_hours"/>
    <g s:x="30" s:y="10" s:pid="Y"/>
  </g>
  <g s:type="inputExt" transform="translate(356,363)" s:width="30" s:height="20" id="cell_i_set_minutes">
    <text x="15" y="-4" class="nodelabel cell_i_set_minutes" s:attribute="ref">i_set_minutes</text>
    <s:alias val="$_inputExt_"/>
    <path d="M0,0 L0,20 L15,20 L30,10 L15,0 Z" class="cell_i_set_minutes"/>
    <g s:x="30" s:y="10" s:pid="Y"/>
  </g>
  <g s:type="outputExt" transform="translate(1830,386.5)" s:width="30" s:height="20" id="cell_o_serial_dout">
    <text x="15" y="-4" class="nodelabel cell_o_serial_dout" s:attribute="ref">o_serial_dout</text>
    <s:alias val="$_outputExt_"/>
    <path d="M30,0 L30,20 L15,20 L0,10 L15,0 Z" class="cell_o_serial_dout"/>
    <g s:x="0" s:y="10" s:pid="A"/>
  </g>
  <g s:type="outputExt" transform="translate(1830,451.5)" s:width="30" s:height="20" id="cell_o_serial_load">
    <text x="15" y="-4" class="nodelabel cell_o_serial_load" s:attribute="ref">o_serial_load</text>
    <s:alias val="$_outputExt_"/>
    <path d="M30,0 L30,20 L15,20 L0,10 L15,0 Z" class="cell_o_serial_load"/>
    <g s:x="0" s:y="10" s:pid="A"/>
  </g>
  <g s:type="outputExt" transform="translate(1830,321.5)" s:width="30" s:height="20" id="cell_o_serial_clk">
    <text x="15" y="-4" class="nodelabel cell_o_serial_clk" s:attribute="ref">o_serial_clk</text>
    <s:alias val="$_outputExt_"/>
    <path d="M30,0 L30,20 L15,20 L0,10 L15,0 Z" class="cell_o_serial_clk"/>
    <g s:x="0" s:y="10" s:pid="A"/>
  </g>
  <line x1="668" x2="785" y1="293" y2="293" class="net_12 width_1" style="stroke-width: 1"/>
  <line x1="785" x2="785" y1="293" y2="426.5" class="net_12 width_1" style="stroke-width: 1"/>
  <circle cx="785" cy="293" r="2" style="fill:#000" class="net_12 width_1"/>
  <line x1="785" x2="1082" y1="426.5" y2="426.5" class="net_12 width_1" style="stroke-width: 1"/>
  <line x1="668" x2="785" y1="293" y2="293" class="net_12 width_1" style="stroke-width: 1"/>
  <line x1="785" x2="785" y1="293" y2="128.5" class="net_12 width_1" style="stroke-width: 1"/>
  <line x1="785" x2="840" y1="128.5" y2="128.5" class="net_12 width_1" style="stroke-width: 1"/>
  <line x1="840" x2="840" y1="128.5" y2="293" class="net_12 width_1" style="stroke-width: 1"/>
  <line x1="840" x2="959" y1="293" y2="293" class="net_12 width_1" style="stroke-width: 1"/>
  <line x1="668" x2="775" y1="313" y2="313" class="net_13 width_1" style="stroke-width: 1"/>
  <line x1="775" x2="775" y1="313" y2="441.5" class="net_13 width_1" style="stroke-width: 1"/>
  <circle cx="775" cy="313" r="2" style="fill:#000" class="net_13 width_1"/>
  <line x1="775" x2="1082" y1="441.5" y2="441.5" class="net_13 width_1" style="stroke-width: 1"/>
  <line x1="668" x2="959" y1="313" y2="313" class="net_13 width_1" style="stroke-width: 1"/>
  <line x1="387" x2="532" y1="189.5" y2="189.5" class="net_15 width_1" style="stroke-width: 1"/>
  <line x1="532" x2="532" y1="189.5" y2="149.5" class="net_15 width_1" style="stroke-width: 1"/>
  <line x1="532" x2="800" y1="149.5" y2="149.5" class="net_15 width_1" style="stroke-width: 1"/>
  <line x1="387" x2="800" y1="169.5" y2="169.5" class="net_16 width_1" style="stroke-width: 1"/>
  <line x1="668" x2="810" y1="273" y2="273" class="net_17 width_1" style="stroke-width: 1"/>
  <line x1="810" x2="810" y1="273" y2="174.5" class="net_17 width_1" style="stroke-width: 1"/>
  <line x1="42" x2="276" y1="98" y2="98" class="net_3 width_1" style="stroke-width: 1"/>
  <line x1="276" x2="276" y1="98" y2="129.5" class="net_3 width_1" style="stroke-width: 1"/>
  <circle cx="276" cy="98" r="2" style="fill:#000" class="net_3 width_1"/>
  <line x1="276" x2="356" y1="129.5" y2="129.5" class="net_3 width_1" style="stroke-width: 1"/>
  <line x1="42" x2="86" y1="98" y2="98" class="net_3 width_1" style="stroke-width: 1"/>
  <line x1="86" x2="86" y1="98" y2="76" class="net_3 width_1" style="stroke-width: 1"/>
  <line x1="86" x2="860" y1="76" y2="76" class="net_3 width_1" style="stroke-width: 1"/>
  <line x1="860" x2="860" y1="76" y2="253" class="net_3 width_1" style="stroke-width: 1"/>
  <circle cx="86" cy="98" r="2" style="fill:#000" class="net_3 width_1"/>
  <line x1="860" x2="959" y1="253" y2="253" class="net_3 width_1" style="stroke-width: 1"/>
  <line x1="42" x2="86" y1="98" y2="98" class="net_3 width_1" style="stroke-width: 1"/>
  <line x1="86" x2="86" y1="98" y2="476.5" class="net_3 width_1" style="stroke-width: 1"/>
  <line x1="86" x2="1410" y1="476.5" y2="476.5" class="net_3 width_1" style="stroke-width: 1"/>
  <line x1="42" x2="86" y1="98" y2="98" class="net_3 width_1" style="stroke-width: 1"/>
  <line x1="86" x2="86" y1="98" y2="76" class="net_3 width_1" style="stroke-width: 1"/>
  <line x1="86" x2="482" y1="76" y2="76" class="net_3 width_1" style="stroke-width: 1"/>
  <line x1="482" x2="482" y1="76" y2="54" class="net_3 width_1" style="stroke-width: 1"/>
  <line x1="482" x2="1590" y1="54" y2="54" class="net_3 width_1" style="stroke-width: 1"/>
  <line x1="1590" x2="1590" y1="54" y2="336.5" class="net_3 width_1" style="stroke-width: 1"/>
  <circle cx="482" cy="76" r="2" style="fill:#000" class="net_3 width_1"/>
  <line x1="1590" x2="1685" y1="336.5" y2="336.5" class="net_3 width_1" style="stroke-width: 1"/>
  <line x1="42" x2="542" y1="98" y2="98" class="net_3 width_1" style="stroke-width: 1"/>
  <line x1="542" x2="542" y1="98" y2="273" class="net_3 width_1" style="stroke-width: 1"/>
  <line x1="542" x2="637" y1="273" y2="273" class="net_3 width_1" style="stroke-width: 1"/>
  <line x1="42" x2="86" y1="98" y2="98" class="net_3 width_1" style="stroke-width: 1"/>
  <line x1="86" x2="86" y1="98" y2="149.5" class="net_3 width_1" style="stroke-width: 1"/>
  <circle cx="86" cy="149.5" r="2" style="fill:#000" class="net_3 width_1"/>
  <line x1="86" x2="156" y1="149.5" y2="149.5" class="net_3 width_1" style="stroke-width: 1"/>
  <line x1="187" x2="356" y1="149.5" y2="149.5" class="net_19 width_1" style="stroke-width: 1"/>
  <line x1="42" x2="276" y1="277" y2="277" class="net_2 width_1" style="stroke-width: 1"/>
  <line x1="276" x2="276" y1="277" y2="169.5" class="net_2 width_1" style="stroke-width: 1"/>
  <circle cx="276" cy="277" r="2" style="fill:#000" class="net_2 width_1"/>
  <line x1="276" x2="356" y1="169.5" y2="169.5" class="net_2 width_1" style="stroke-width: 1"/>
  <line x1="42" x2="76" y1="277" y2="277" class="net_2 width_1" style="stroke-width: 1"/>
  <line x1="76" x2="76" y1="277" y2="87" class="net_2 width_1" style="stroke-width: 1"/>
  <line x1="76" x2="850" y1="87" y2="87" class="net_2 width_1" style="stroke-width: 1"/>
  <line x1="850" x2="850" y1="87" y2="273" class="net_2 width_1" style="stroke-width: 1"/>
  <circle cx="76" cy="277" r="2" style="fill:#000" class="net_2 width_1"/>
  <line x1="850" x2="959" y1="273" y2="273" class="net_2 width_1" style="stroke-width: 1"/>
  <line x1="42" x2="76" y1="277" y2="277" class="net_2 width_1" style="stroke-width: 1"/>
  <line x1="76" x2="76" y1="277" y2="556.5" class="net_2 width_1" style="stroke-width: 1"/>
  <line x1="76" x2="1410" y1="556.5" y2="556.5" class="net_2 width_1" style="stroke-width: 1"/>
  <line x1="42" x2="276" y1="277" y2="277" class="net_2 width_1" style="stroke-width: 1"/>
  <line x1="276" x2="276" y1="277" y2="395.5" class="net_2 width_1" style="stroke-width: 1"/>
  <line x1="276" x2="1550" y1="395.5" y2="395.5" class="net_2 width_1" style="stroke-width: 1"/>
  <line x1="1550" x2="1550" y1="395.5" y2="416.5" class="net_2 width_1" style="stroke-width: 1"/>
  <line x1="1550" x2="1685" y1="416.5" y2="416.5" class="net_2 width_1" style="stroke-width: 1"/>
  <line x1="42" x2="492" y1="277" y2="277" class="net_2 width_1" style="stroke-width: 1"/>
  <line x1="492" x2="492" y1="277" y2="333" class="net_2 width_1" style="stroke-width: 1"/>
  <line x1="492" x2="637" y1="333" y2="333" class="net_2 width_1" style="stroke-width: 1"/>
  <line x1="42" x2="76" y1="277" y2="277" class="net_2 width_1" style="stroke-width: 1"/>
  <line x1="76" x2="76" y1="277" y2="189.5" class="net_2 width_1" style="stroke-width: 1"/>
  <circle cx="76" cy="189.5" r="2" style="fill:#000" class="net_2 width_1"/>
  <line x1="76" x2="156" y1="189.5" y2="189.5" class="net_2 width_1" style="stroke-width: 1"/>
  <line x1="387" x2="522" y1="129.5" y2="129.5" class="net_20 width_1" style="stroke-width: 1"/>
  <line x1="522" x2="522" y1="129.5" y2="65" class="net_20 width_1" style="stroke-width: 1"/>
  <line x1="522" x2="870" y1="65" y2="65" class="net_20 width_1" style="stroke-width: 1"/>
  <line x1="870" x2="870" y1="65" y2="233" class="net_20 width_1" style="stroke-width: 1"/>
  <circle cx="522" cy="129.5" r="2" style="fill:#000" class="net_20 width_1"/>
  <line x1="870" x2="959" y1="233" y2="233" class="net_20 width_1" style="stroke-width: 1"/>
  <line x1="387" x2="522" y1="129.5" y2="129.5" class="net_20 width_1" style="stroke-width: 1"/>
  <line x1="522" x2="522" y1="129.5" y2="456.5" class="net_20 width_1" style="stroke-width: 1"/>
  <line x1="522" x2="1410" y1="456.5" y2="456.5" class="net_20 width_1" style="stroke-width: 1"/>
  <line x1="820" x2="830" y1="159.5" y2="159.5" class="net_18 width_1" style="stroke-width: 1"/>
  <line x1="830" x2="830" y1="159.5" y2="333" class="net_18 width_1" style="stroke-width: 1"/>
  <circle cx="830" cy="333" r="2" style="fill:#000" class="net_18 width_1"/>
  <line x1="830" x2="959" y1="333" y2="333" class="net_18 width_1" style="stroke-width: 1"/>
  <line x1="820" x2="830" y1="159.5" y2="159.5" class="net_18 width_1" style="stroke-width: 1"/>
  <line x1="830" x2="830" y1="159.5" y2="516.5" class="net_18 width_1" style="stroke-width: 1"/>
  <line x1="830" x2="1410" y1="516.5" y2="516.5" class="net_18 width_1" style="stroke-width: 1"/>
  <line x1="1110" x2="1120" y1="434" y2="434" class="net_14 width_1" style="stroke-width: 1"/>
  <line x1="1120" x2="1120" y1="434" y2="496.5" class="net_14 width_1" style="stroke-width: 1"/>
  <circle cx="1120" cy="434" r="2" style="fill:#000" class="net_14 width_1"/>
  <line x1="1120" x2="1410" y1="496.5" y2="496.5" class="net_14 width_1" style="stroke-width: 1"/>
  <line x1="1110" x2="1120" y1="434" y2="434" class="net_14 width_1" style="stroke-width: 1"/>
  <line x1="1120" x2="1120" y1="434" y2="181.5" class="net_14 width_1" style="stroke-width: 1"/>
  <line x1="1120" x2="1206" y1="181.5" y2="181.5" class="net_14 width_1" style="stroke-width: 1"/>
  <line x1="1716" x2="1805" y1="336.5" y2="336.5" class="net_39 width_1" style="stroke-width: 1"/>
  <line x1="1805" x2="1805" y1="336.5" y2="579" class="net_39 width_1" style="stroke-width: 1"/>
  <line x1="1805" x2="1306" y1="579" y2="579" class="net_39 width_1" style="stroke-width: 1"/>
  <line x1="1306" x2="1306" y1="579" y2="536.5" class="net_39 width_1" style="stroke-width: 1"/>
  <line x1="1306" x2="1410" y1="536.5" y2="536.5" class="net_39 width_1" style="stroke-width: 1"/>
  <line x1="1237" x2="1580" y1="161.5" y2="161.5" class="net_42,43,44,45,46,47 width_6" style="stroke-width: 2"/>
  <line x1="1580" x2="1580" y1="161.5" y2="356.5" class="net_42,43,44,45,46,47 width_6" style="stroke-width: 2"/>
  <line x1="1580" x2="1685" y1="356.5" y2="356.5" class="net_42,43,44,45,46,47 width_6" style="stroke-width: 2"/>
  <line x1="990" x2="1570" y1="233" y2="233" class="net_22,23,24,25,26 width_5" style="stroke-width: 2"/>
  <line x1="1570" x2="1570" y1="233" y2="376.5" class="net_22,23,24,25,26 width_5" style="stroke-width: 2"/>
  <line x1="1570" x2="1685" y1="376.5" y2="376.5" class="net_22,23,24,25,26 width_5" style="stroke-width: 2"/>
  <line x1="990" x2="1560" y1="253" y2="253" class="net_27,28,29,30,31,32 width_6" style="stroke-width: 2"/>
  <line x1="1560" x2="1560" y1="253" y2="396.5" class="net_27,28,29,30,31,32 width_6" style="stroke-width: 2"/>
  <line x1="1560" x2="1685" y1="396.5" y2="396.5" class="net_27,28,29,30,31,32 width_6" style="stroke-width: 2"/>
  <line x1="990" x2="1055" y1="273" y2="273" class="net_33,34,35,36,37,38 width_6" style="stroke-width: 2"/>
  <line x1="1055" x2="1055" y1="273" y2="410.5" class="net_33,34,35,36,37,38 width_6" style="stroke-width: 2"/>
  <line x1="1055" x2="1540" y1="410.5" y2="410.5" class="net_33,34,35,36,37,38 width_6" style="stroke-width: 2"/>
  <line x1="1540" x2="1540" y1="410.5" y2="436.5" class="net_33,34,35,36,37,38 width_6" style="stroke-width: 2"/>
  <circle cx="1055" cy="273" r="3" style="fill:#000" class="net_33,34,35,36,37,38 width_6"/>
  <line x1="1540" x2="1685" y1="436.5" y2="436.5" class="net_33,34,35,36,37,38 width_6" style="stroke-width: 2"/>
  <line x1="990" x2="1055" y1="273" y2="273" class="net_33,34,35,36,37,38 width_6" style="stroke-width: 2"/>
  <line x1="1055" x2="1055" y1="273" y2="161.5" class="net_33,34,35,36,37,38 width_6" style="stroke-width: 2"/>
  <line x1="1055" x2="1206" y1="161.5" y2="161.5" class="net_33,34,35,36,37,38 width_6" style="stroke-width: 2"/>
  <line x1="1441" x2="1685" y1="456.5" y2="456.5" class="net_40 width_1" style="stroke-width: 1"/>
  <line x1="1441" x2="1685" y1="476.5" y2="476.5" class="net_41 width_1" style="stroke-width: 1"/>
  <line x1="387" x2="512" y1="149.5" y2="149.5" class="net_21 width_1" style="stroke-width: 1"/>
  <line x1="512" x2="512" y1="149.5" y2="293" class="net_21 width_1" style="stroke-width: 1"/>
  <line x1="512" x2="637" y1="293" y2="293" class="net_21 width_1" style="stroke-width: 1"/>
  <line x1="386" x2="502" y1="257" y2="257" class="net_6 width_1" style="stroke-width: 1"/>
  <line x1="502" x2="502" y1="257" y2="313" class="net_6 width_1" style="stroke-width: 1"/>
  <line x1="502" x2="637" y1="313" y2="313" class="net_6 width_1" style="stroke-width: 1"/>
  <line x1="386" x2="482" y1="308" y2="308" class="net_7 width_1" style="stroke-width: 1"/>
  <line x1="482" x2="482" y1="308" y2="353" class="net_7 width_1" style="stroke-width: 1"/>
  <line x1="482" x2="637" y1="353" y2="353" class="net_7 width_1" style="stroke-width: 1"/>
  <line x1="386" x2="637" y1="373" y2="373" class="net_8 width_1" style="stroke-width: 1"/>
  <line x1="42" x2="156" y1="169.5" y2="169.5" class="net_4 width_1" style="stroke-width: 1"/>
  <line x1="1716" x2="1830" y1="396.5" y2="396.5" class="net_9 width_1" style="stroke-width: 1"/>
  <line x1="1716" x2="1815" y1="416.5" y2="416.5" class="net_10 width_1" style="stroke-width: 1"/>
  <line x1="1815" x2="1815" y1="416.5" y2="461.5" class="net_10 width_1" style="stroke-width: 1"/>
  <line x1="1815" x2="1830" y1="461.5" y2="461.5" class="net_10 width_1" style="stroke-width: 1"/>
  <line x1="1716" x2="1815" y1="376.5" y2="376.5" class="net_11 width_1" style="stroke-width: 1"/>
  <line x1="1815" x2="1815" y1="376.5" y2="331.5" class="net_11 width_1" style="stroke-width: 1"/>
  <line x1="1815" x2="1830" y1="331.5" y2="331.5" class="net_11 width_1" style="stroke-width: 1"/>
  <rect x="1429.5" y="156.5" width="16" height="9" class="net_42,43,44,45,46,47 width_6 busLabel_6" style="fill: white; stroke: none"/>
  <text x="1428.5" y="164.5" class="net_42,43,44,45,46,47 width_6 busLabel_6">/6/</text>
  <rect x="1219.5" y="228" width="16" height="9" class="net_22,23,24,25,26 width_5 busLabel_5" style="fill: white; stroke: none"/>
  <text x="1218.5" y="236" class="net_22,23,24,25,26 width_5 busLabel_5">/5/</text>
  <rect x="1219.5" y="248" width="16" height="9" class="net_27,28,29,30,31,32 width_6 busLabel_6" style="fill: white; stroke: none"/>
  <text x="1218.5" y="256" class="net_27,28,29,30,31,32 width_6 busLabel_6">/6/</text>
  <rect x="1094" y="156.5" width="16" height="9" class="net_33,34,35,36,37,38 width_6 busLabel_6" style="fill: white; stroke: none"/>
  <text x="1093" y="164.5" class="net_33,34,35,36,37,38 width_6 busLabel_6">/6/</text>
  <rect x="1094" y="156.5" width="16" height="9" class="net_33,34,35,36,37,38 width_6 busLabel_6" style="fill: white; stroke: none"/>
  <text x="1093" y="164.5" class="net_33,34,35,36,37,38 width_6 busLabel_6">/6/</text>
</svg>
